Patient4_TMGait_0pt2_01_left_20_EMG.mot
version=1
nRows=37
nColumns=33
inDegrees=no
endheader
time	1LAddLong	2LGlutMax	3LGlutMed	4LIliopsoas	5LSemiMemb	6LBicFemLong	7LRecFem	8LVastMed	9LVastLat	10LGasMed	11LTibAnt	12lTibPost	13LPeroneusLong	14LSol	15LExtDigLong	16LFlexDigLong	17RAddLong	18RGlutMax	19RGlutMed	20RIliopsoas	21RSemiMemb	22RBicFemLong	23RRecFem	24RVastMed	25RVastLat	26RGasMed	27RTibAnt	28RTibPost	29RPeroneusLong	30RSol	31RExtDigLong	32RFlexDigLong
46.01	0.007935	-0.006714	-0.01709	-0.000916	0.00946	0.011902	-0.006866	0.004578	0.017853	0.036011	0.11536	-0.001221	0.018463	0.025024	-0.37933	0.01236	0.018463	-0.031433	-0.081024	-0.00946	-0.062103	0.022888	-0.1442	-0.06485	-0.069275	-0.007935	0.013428	-0.016479	-0.25696	0.20508	-0.00061	-0.011597
46.011	-0.009766	0.025177	-0.063171	0.0177	0.010376	0.014496	0.005188	-0.003815	0.024414	-0.014801	0.12451	0.001526	0.18219	0.037384	-0.1358	0.017242	0.044403	-0.020142	0.057678	-0.064697	-0.036926	-0.074463	-0.21423	0.038147	0.12268	-0.016022	0.061188	0.001984	-0.20172	0.016785	-0.001831	-0.015717
46.012	0.01236	0.000153	-0.091858	0.023651	0.007172	0.001373	0.011139	0.003357	0.040588	-0.068207	0.13809	-0.000153	0.27618	0.098114	-0.019989	0.027618	0.048981	-0.029755	0.2243	-0.097198	0.047607	-0.036316	-0.17517	0.097809	0.08728	-0.024109	0.18982	0.010529	-0.48798	0.045319	-0.001526	-0.010681
46.013	0.047913	0.000458	0.02594	-0.011444	0.012054	0.001678	0.005341	-0.00412	0.032501	-0.018311	0.37735	0.001526	0.1474	0.11643	-0.15198	0.019836	0.027161	-0.06546	0.051422	-0.059509	0.15243	0.061035	-0.16388	0.10147	0.020905	-0.007324	0.15137	-0.006409	-0.32303	0.13382	-0.001221	-0.005341
46.014	0.00946	0.034943	0.10315	-0.000763	0.006714	0.010986	0.000916	0.007172	0.032501	0.037384	0.4744	0.001678	-0.036163	0.12344	0.88409	0.02594	0.008392	-0.019073	-0.053406	-0.031128	0.005646	0.16846	-0.061188	0.087128	-0.24155	-0.002594	-0.10696	-0.019073	0.81161	0.16174	-0.003357	-0.010376
46.015	0.010223	0.024414	0.10925	0.020905	0.011292	0.029144	-0.000916	0.004272	0.036316	0.019226	0.18326	0.005493	0.029449	0.12711	0.58212	0.029449	0.011597	-0.063629	-0.4097	0.018616	-0.19928	0.2356	0.090637	-0.028534	-0.24811	-0.056763	0.078888	-0.025482	0.3978	0.15274	-0.000763	-0.004578
46.016	-0.003815	0.039063	0.10254	0.03479	0.010834	0.018311	-0.039368	0.00351	0.031281	-0.010681	0.13138	0.003052	0.13306	0.19531	0.18753	0.010376	0.063171	-0.026093	-0.34378	0.020752	-0.34027	0.15182	0.15945	-0.10895	-0.10819	-0.058289	-0.048676	-0.046692	0.1297	0.098877	-0.002441	-0.00351
46.017	-0.008698	0.049286	0.11246	0.059814	-0.001526	0.007324	-0.093231	0.005493	0.040283	-0.029755	-0.17609	0.008545	0.19623	0.20813	-0.53711	0.017395	0.10056	0.025482	0.3125	-0.087585	-0.063782	0.036163	0.22736	-0.053101	-0.33493	-0.004883	-0.045471	-0.060577	-0.15457	0.14511	-0.004578	-0.003357
46.018	0.064545	0.072784	0.086823	0.006866	0.009766	0.003204	-0.08316	0.004883	0.036621	-0.045776	-0.34866	0.003204	0.23377	0.16556	-0.86807	0.020752	0.12772	-0.003967	0.22888	-0.023804	0.10986	-0.11993	0.15671	-0.052948	-0.41367	-0.025024	-0.028839	-0.16876	0.48141	0.034637	-0.003815	-0.003815
46.019	0.003662	0.049133	0.097351	-0.021667	0.009613	0.015564	-0.048676	0.005493	0.039673	-0.029755	-0.31189	-0.000916	0.22339	-0.020752	-0.47302	0.007629	0.087738	0.0383	0.060577	0.042114	-0.005035	-0.08194	0.10498	-0.081024	-0.2832	-0.17929	-0.047302	0.17792	0.42984	-0.020447	-0.002441	-0.00473
46.02	0.027008	0.047913	0.083618	-0.012512	0.003662	0.033569	-0.049591	-0.002289	0.035706	0.003052	-0.12878	0.00351	0.1297	-0.072632	-0.41809	0.00946	-0.027161	0.11032	-0.1326	0.064392	-0.32684	0.019531	0.084839	0.03891	-0.09552	-0.16602	0.06134	0.062866	-0.95444	-0.027008	-0.002441	0.005188
46.021	-0.022125	0.053864	0.057068	-0.004425	0.001831	0.017395	-0.036774	0.003815	0.028076	0.018463	-0.024109	0.005493	0.067139	-0.079803	-0.13519	-0.001526	-0.13748	0.16159	-0.36652	0.039673	-0.1355	0.12604	0.068054	0.17288	-0.048981	-0.11459	0.054626	-0.13931	-1.5199	-0.2977	-0.005646	-0.009003
46.022	0.001678	0.044098	0.054932	0.017242	0.004425	0.011902	-0.049896	0.000305	0.028381	0.006409	-0.080872	0.004272	0.062408	-0.12375	0.009613	-0.012207	-0.099182	0.17517	-0.13397	-0.010529	-0.065155	0.21698	0.086365	0.26413	-0.05661	-0.046082	0.058746	-0.25421	-1.3329	-0.52002	-0.000458	-0.010681
46.023	-0.000916	0.070953	0.042877	0.009918	0.001831	0.007172	-0.053253	-0.000763	0.024109	-0.017853	-0.11643	-0.001068	0.096283	-0.15991	0.33829	-0.001221	-0.060577	0.29434	0.64606	-0.025024	0.019226	0.30624	0.053253	0.32638	-0.065002	0.054779	0.014343	0.20447	0.75562	-0.51529	-0.003815	-0.018158
46.024	-0.009766	0.050201	0.035858	0	0.004272	0.039978	-0.052948	0.003052	0.037384	-0.009155	-0.14023	0.002747	0.11108	-0.10559	-0.33081	-0.004578	-0.050201	0.30762	0.36468	-0.001984	0.058289	0.28473	-0.050659	0.26825	-0.015259	0.13489	-0.019379	0.077515	1.9569	0.14206	-0.003052	-0.020905
46.025	-0.015869	0.009155	0.037079	-0.001984	0.008087	0.028076	-0.077667	0.004578	0.035248	0.003052	-0.028992	-0.000458	0.076294	-0.066376	0.093231	0.01236	-0.045776	0.31143	0.3418	-0.021667	0.023346	0.18036	-0.089874	0.18585	-0.015869	0.029144	0.019989	-0.33737	0.74783	0.30319	-0.007324	-0.019531
46.026	-0.006866	0.036926	0.017242	-0.001526	0.010986	0.031433	-0.030823	0.005646	0.030823	0.007782	-0.030823	0.003052	0.049744	-0.014648	0.1152	0.006409	-0.031128	0.33981	0.56274	0.017242	0.072784	-0.12131	-0.069885	0.097198	0.012207	0.026703	0.041046	0.038757	-0.95291	-0.061035	-0.006409	-0.006866
46.027	-0.00824	0.027924	0	0.016022	0.012512	0.026398	-0.016022	0.004272	0.019531	-0.005951	-0.35095	0.008087	0.12177	-0.077515	0.018311	0.003052	-0.01709	0.25604	-0.03067	-0.056152	0.069427	-0.3009	0.007782	-0.11734	0.038452	0.13367	0.024414	0.018158	0.448	-0.25314	0	-0.004272
46.028	-0.026398	0.023346	-0.027466	0.018616	0.015259	0.021362	-0.012207	0.010376	0.023193	0.018311	-0.2385	0.005035	0.077515	-0.1181	-0.14832	-0.018463	0.029449	0.23132	0.061951	-0.003967	-0.039368	-0.42725	0.079041	-0.25986	0.074463	0.11307	-0.053864	0.12558	0.86914	-0.18005	-0.00061	-0.002747
46.029	0.00412	-0.003204	-0.011902	-0.003204	0.007782	-0.003662	-0.019989	0.008087	0.024567	0.033417	-0.089874	0.007935	0.057831	-0.17166	0.04776	-0.0383	0.065613	0.26016	0.18494	0.037689	-0.10101	-0.34012	0.11063	-0.36133	0.11169	0.036621	-0.32974	0.18478	0.052643	-0.30624	-0.001068	-0.002441
46.03	0.012207	0.001984	0.024872	0.016174	0.006714	-0.014801	-0.011597	0.008545	0.026093	0.030518	-0.068054	0.002899	0.067902	-0.18768	0.27222	-0.013885	0.071106	0.24445	0.1268	0.035858	-0.10422	-0.27374	0.15915	-0.26321	0.081482	-0.014343	-0.05188	0.112	-1.5828	-0.45502	-0.00061	-0.010681
46.031	0.011749	-0.001373	0.042725	0.017395	0.012665	-0.021973	-0.025024	-0.009308	0.030212	0.002899	-0.15259	-0.002441	0.12253	-0.1329	0.34149	-0.002594	0.04303	0.28412	0.73242	-0.006256	0.003967	-0.049744	0.063934	-0.019379	0.11963	-0.004883	0.14511	0.017548	-1.655	-0.448	-0.001221	-0.010834
46.032	0.016479	-0.025635	0.048218	0.033417	0.012817	-0.035248	-0.027771	0.009766	0.034332	-0.018463	-0.21347	0.005493	0.18799	-0.060425	0.32288	0.005035	0.001831	0.24277	0.53329	0.036163	0.15381	0.29465	-0.063171	-0.12741	0.072479	0.019073	0.1532	-0.019684	-0.7518	-0.30075	0.004578	-0.015869
46.033	0.000458	-0.046234	0.053558	0.024719	0.012665	-0.024567	-0.040741	-0.00351	0.030518	-0.042114	-0.062256	0.006866	0.14816	-0.00061	0.29633	0.011292	0.025635	0.27695	-0.021057	0.071106	0.14938	0.25406	0.009308	-0.159	0.062103	0.021667	-0.018616	0.008087	0.60059	-0.12451	0.001526	-0.006714
46.034	0.022736	-0.03006	0.049133	-0.00351	0.013733	-0.018158	-0.0354	-0.006714	0.018616	-0.027008	0.13168	0.002136	0.08606	0.069733	-0.071564	0.018463	0.059662	0.26321	-0.4512	0.038605	0.21683	0.22797	0.11581	-0.047302	0.081177	0.005188	0.020447	-0.020752	1.1699	0.21011	0.000763	-0.011139
46.035	0.0177	-0.045166	-0.007935	0.005798	0.015869	-0.007477	-0.040894	-0.005188	0.033264	-0.010223	0.20371	0.004425	-0.025635	0.11643	-0.030212	0.027618	0.069885	0.25314	-0.057373	0.045776	0.23682	0.48416	0.16403	0.088959	0.096741	-0.005493	0.1973	-0.036011	0.41718	0.095673	-0.002136	-0.008545
46.036	0.015106	-0.014801	-0.02243	-0.001984	0.015106	0.006409	-0.037537	0.000458	0.024414	0.018158	0.31204	0.002289	-0.029907	0.032959	-0.24002	0.006561	0.010986	0.25314	0.51651	-0.009308	0.14465	0.77743	0.1152	0.18356	0.15305	0.011902	0.078888	-0.037537	0.30243	-0.14145	-0.001526	-0.007019
46.037	0.000153	0.001984	0.007782	-0.00824	0.012665	0.007782	-0.037231	0.002289	0.021515	0.029144	0.13016	0.000763	-0.014496	-0.016479	-0.33829	0.012512	-0.025635	0.20248	0.20874	-0.009766	-0.17838	0.13092	0.077515	0.21271	0.15762	0.026093	-0.12573	-0.039825	-0.010681	-0.079041	-0.003357	-0.011902
46.038	-0.002136	-0.011444	-0.019989	0.012512	0.010986	0.013885	-0.033875	0.005646	0.012512	0.036469	-0.005951	0.002289	0.006409	-0.10071	-0.46921	-0.003357	-0.03418	0.19363	-0.18997	0.022125	-0.084686	-0.20477	0.016327	0.25009	0.18997	0.016174	-0.069275	-0.039215	0.28473	0.004883	-0.000763	-0.009003
46.039	0.009918	-0.012817	-0.092163	-0.039978	0.009613	0.007935	-0.018311	0.000916	0.005493	0.046997	-0.14557	-0.007477	-0.008545	-0.14023	-0.23132	-0.003815	-0.046082	0.24704	-0.35507	0.045319	-0.48309	-0.11276	-0.19562	0.085602	0.26688	-0.007019	-0.070953	-0.042877	0.84015	0.015869	0	-0.009155
46.04	-0.003357	0.019836	0.025024	-0.057983	0.013733	0.00351	0.011444	-0.000916	-0.009155	0.04837	-0.085449	-0.006256	0.018921	-0.10696	0.26352	-0.003815	0.001526	0.21622	0.063477	-0.027771	-0.39246	-0.16113	-0.41794	0.52567	0.3894	-0.036621	-0.004272	-0.040283	-0.3865	0.097809	0.000916	-0.018463
46.041	-0.002899	0.028381	0.069885	-0.011139	0.018005	0.039673	0.036469	0.002899	-0.004883	0.045166	-0.000153	-0.001678	0.016785	-0.1445	0.32501	-0.005188	-0.006561	0.20859	0.029297	-0.020142	0.097046	-0.15076	-0.47226	0.62332	0.37155	-0.0177	0.099335	-0.034332	-1.2262	0.020142	-0.003662	-0.018768
46.042	-0.013885	0.002441	0.12878	0.016022	0.023651	0.040283	0.042267	0.002441	-0.004578	0.067749	0.12131	0.004578	-0.042572	-0.16419	0.30868	-0.005493	0.010071	0.21729	-0.1207	-0.030823	0.22858	-0.12253	-0.2562	0.36728	0.41412	-0.049286	0.048828	-0.037079	-0.27985	-0.026398	0	-0.016479
46.043	0.001831	-0.005646	0.1268	0.014801	0.020142	0.023956	0.001984	0.000153	-0.00946	0.037231	0.075226	0.001984	-0.068665	-0.029755	0.37674	-0.002441	0.017853	0.052643	-0.058899	-0.032043	0.090027	-0.11749	-0.29098	-0.22034	0.33783	0.010681	0.023804	-0.040588	-0.90408	0.004578	-0.000916	-0.001068
46.044	0.00824	-0.017548	0.11322	-0.005341	0.028229	0.048065	-0.010834	0.002747	-0.009766	0.003052	-0.030975	0.002289	0.037384	0.031433	0.2092	-0.005035	0.071564	0.001984	-0.18005	0.022888	0.068512	-0.22415	-0.11383	-0.65414	-0.16235	-0.047302	-0.11276	-0.041809	-0.21255	0.18402	0.00061	-0.00412
46.045	0.005798	-0.015411	0.072632	-0.022583	0.023041	0.066223	-0.014801	-0.003052	-0.002441	-0.035858	0.009766	0.002136	0.16663	0.11963	0.30823	-0.005798	0.075989	0.064545	-0.54749	0.047455	0.13825	-0.26855	-0.24475	-0.47806	-0.6398	-0.10132	-0.15762	-0.023193	0.26901	0.00061	0.002747	-0.007935
46.046	-0.000458	0.011139	0.060272	-0.014343	0.017242	0.032043	-0.014801	0.006409	-0.006561	-0.042267	0.090332	0.001678	0.12726	0.19608	0.3302	0.00885	0.055084	0.09201	-0.70602	-0.019836	-0.00473	-0.22903	-0.16937	-0.50552	-0.45303	-0.001526	-0.066528	-0.019684	0.36591	-0.12909	0.011749	-0.018005
